<?xml version="1.0" encoding="utf-8"?>
<!-- Generator: Adobe Illustrator 16.0.0, SVG Export Plug-In . SVG Version: 6.00 Build 0)  -->
<!DOCTYPE svg PUBLIC "-//W3C//DTD SVG 1.1//EN" "http://www.w3.org/Graphics/SVG/1.1/DTD/svg11.dtd">
<svg version="1.1" id="Layer_1" xmlns="http://www.w3.org/2000/svg" xmlns:xlink="http://www.w3.org/1999/xlink" x="0px" y="0px"
	 width="792px" height="612px" viewBox="0 0 792 612" enable-background="new 0 0 792 612" xml:space="preserve">
<path fill-rule="evenodd" clip-rule="evenodd" fill="none" d="M1234.594,1418.092c0.111-0.352,0.306-0.956,0.498-1.561
	c0.089,0.234,0.283,0.486,0.249,0.7c-0.141,0.872-0.351,1.732-0.535,2.598C1234.748,1419.353,1234.689,1418.877,1234.594,1418.092z"
	/>
<path fill-rule="evenodd" clip-rule="evenodd" fill="none" d="M1238.555,1418.128c-0.104,0.724-0.168,1.169-0.232,1.613
	c-0.186-0.843-0.397-1.681-0.535-2.531c-0.032-0.194,0.191-0.431,0.298-0.646
	C1238.264,1417.159,1238.443,1417.756,1238.555,1418.128z"/>
<path fill-rule="evenodd" clip-rule="evenodd" fill="none" d="M1241.207,1417.309c-0.255-0.127-0.409-0.203-0.563-0.28
	c0.198-0.22,0.396-0.44,0.595-0.662c0.145,0.21,0.289,0.42,0.434,0.63C1241.537,1417.088,1241.401,1417.178,1241.207,1417.309z"/>
<path fill-rule="evenodd" clip-rule="evenodd" fill="none" d="M1233.336,1418.697c-0.063,0.398-0.123,0.79-0.182,1.182
	c-0.081-0.427-0.225-0.852-0.225-1.278c0-0.428,0.142-0.856,0.221-1.285C1233.214,1417.773,1233.277,1418.232,1233.336,1418.697z"/>
<g>
	<radialGradient id="SVGID_1_" cx="392.374" cy="305.1768" r="290.2661" gradientUnits="userSpaceOnUse">
		<stop  offset="0.133" style="stop-color:#215E62"/>
		<stop  offset="0.6667" style="stop-color:#026157"/>
		<stop  offset="1" style="stop-color:#004941"/>
	</radialGradient>
	
		<path fill-rule="evenodd" clip-rule="evenodd" fill="url(#SVGID_1_)" stroke="#44B2E5" stroke-width="2" stroke-miterlimit="10" d="
		M682.777,305.44c-6.549,15.954-13.087,31.924-19.657,47.885c-21.281,51.697-42.122,103.589-64.313,154.893
		c-3.624,8.372-15.977,8.705-24.431,12.255c-59.274,24.887-118.56,49.769-178.24,73.654c-11.637,4.657-21.867-5.707-32.274-9.914
		c-58.376-23.601-116.607-47.593-174.476-72.409c-8.722-3.74-8.993-15.866-12.521-24.241
		C151.826,428.14,127.129,368.564,103,308.766c-3.972-9.844,4.592-18.394,8.13-27.09c24.365-59.897,48.931-119.725,74.407-179.155
		c3.784-8.83,16.054-9,24.548-12.646c34.579-14.843,69.417-29.081,104.155-43.554c24.927-10.386,49.428-22.034,74.973-30.567
		c10.081-3.366,20.434,6.164,30.428,10.246c58.385,23.84,116.731,47.793,174.734,72.537c10.754,4.586,10.623,18.042,14.639,27.598
		c24.504,58.308,48.293,116.912,72.316,175.422C681.826,302.76,682.243,303.997,682.777,305.44z M517.358,304.912
		c0.284,1.088,0.39,1.849,0.672,2.535c22.706,55.095,45.421,110.188,68.172,165.266c1.143,2.761,2.654,5.369,3.988,8.049
		c1.288-2.426,2.712-4.791,3.827-7.293c1.899-4.271,3.61-8.624,5.395-12.946c18.924-45.899,37.849-91.798,56.757-137.704
		c0.194-0.467,0.178-1.018,0.263-1.529c-0.615,0.146-1.264,0.213-1.837,0.451c-35.04,14.479-70.001,29.148-105.161,43.319
		c-7.325,2.956-4.625-5.547-7.111-8.275c-1.163-1.272-4.723-4.737,0.299-6.811c34.786-14.369,69.557-28.775,104.323-43.188
		c0.911-0.378,1.728-0.984,2.587-1.484c-0.745-0.517-1.427-1.187-2.243-1.525c-54.529-22.609-109.064-45.204-163.624-67.74
		c-2.326-0.962-4.715-3.26-6.629,1.398c-22.397,54.517-45.183,108.876-67.25,163.526c-2.088,5.172-10.252,11.056-3.371,17.093
		c4.534,3.979,11.562,5.104,17.455,7.551c48.983,20.317,97.959,40.644,146.939,60.97c1.267,0.524,2.535,1.047,3.801,1.568
		c-0.274-1.123-0.407-2.306-0.846-3.361c-21.608-52.094-43.085-104.243-65.192-156.125c-1.609-3.775,0.178-13.936-8.642-10.681
		c-20.056,7.4-39.606,16.18-59.375,24.367c-0.898,0.372-1.927,0.422-2.894,0.622c0.238-1.071,0.534-2.132,0.702-3.215
		c2.882-18.414,17.935-22.699,32.253-27.965c4.993-1.836,9.784-4.221,14.667-6.354c-4.524-2.085-9.024-4.231-13.584-6.237
		c-3.778-1.662-8.552-2.233-11.252-4.924c-5.339-5.32,2.571-9.303,2.876-14.304c0.025-0.44,2.076-1.349,2.796-1.063
		c7.232,2.877,14.154,7.238,21.63,8.57c5.796,1.033,11.782,12.103,17.514,2.324c5.686-9.699,8.156-21.246,13.494-31.2
		c4.393-8.195,9.177,1.345,14.013,1.55c3.597,0.15,1.796,3.276,0.985,5.239C528.281,278.65,522.763,291.897,517.358,304.912z
		 M248.625,261.316c4.604-1.963,9.157-3.987,13.802-5.778c0.544-0.21,2.028,0.675,2.328,1.375c2.994,6.984,4.981,14.572,8.979,20.9
		c3.223,5.102,0.883,16.582,9.985,14.691c11.554-2.401,22.024-9.68,33.51-12.891c7.393-2.067,4.604,7.467,7.882,10.796
		c1.707,1.736,0.717,3.284-1.559,4.184c-7.502,2.967-14.96,6.052-22.42,9.129c-0.839,0.347-1.577,0.935-2.364,1.411
		c0.801,0.543,1.57,1.146,2.409,1.62c16.131,9.101,39.772,8.021,44.368,32.754c0.216,1.158,0.494,2.307,0.743,3.46
		c-1.055-0.252-2.167-0.366-3.156-0.777c-15.688-6.513-31.098-13.874-47.194-19.136c-5.076-1.659-12.413-13.199-17.318-1.805
		c-23.039,53.513-45.104,107.443-67.475,161.242c-0.592,1.422-0.706,3.044-1.042,4.569c1.257-0.182,2.618-0.112,3.755-0.582
		c51.838-21.486,103.715-42.88,155.352-64.841c3.64-1.546,13.436-0.243,10.286-8.037c-23.235-57.522-47.145-114.774-71.132-171.988
		c-0.955-2.277,0.207-8.79-5.708-6.361c-55.39,22.728-110.696,45.656-166.019,68.548c-0.833,0.345-1.561,0.951-2.337,1.435
		c0.841,0.504,1.634,1.123,2.53,1.493c34.841,14.434,69.903,28.365,104.355,43.674c6.624,2.946-2.166,8.984-2.432,13.915
		c-0.15,2.787-2.323,1.729-4.051,1.014c-35.107-14.559-70.224-29.087-105.347-43.602c-0.553-0.228-1.204-0.218-1.808-0.316
		c0.07,0.444,0.053,0.924,0.221,1.327c21.599,52.104,43.21,104.206,64.84,156.298c0.273,0.658,0.784,1.22,1.183,1.826
		c0.384-0.631,0.86-1.222,1.139-1.896c20.839-50.291,41.888-100.497,62.27-150.971c3.425-8.481,11.406-16.387,7.792-26.563
		C260.319,288.275,254.488,275.526,248.625,261.316z M392.246,430.565c-1.063,0.362-1.871,0.585-2.641,0.903
		c-57.067,23.6-114.129,47.201-171.184,70.826c-0.725,0.3-1.331,0.884-1.993,1.335c0.797,0.472,1.549,1.053,2.396,1.404
		c51.839,21.485,103.685,42.952,155.536,64.409c0.505,0.208,1.076,0.248,1.617,0.364c-0.074-0.488-0.053-1.017-0.235-1.463
		c-14.597-35.298-29.147-70.614-43.883-105.853c-2.207-5.277,2.617-4.885,4.396-5.151c3.639-0.548,8.146-7.477,10.741-1.463
		c14.908,34.555,29.036,69.447,43.447,104.217c0.383,0.925,0.97,1.768,1.462,2.646c0.576-0.896,1.308-1.729,1.71-2.697
		c14.417-34.771,28.353-69.751,43.624-104.144c2.643-5.951,8.739,2.096,13.491,2.48c1.52,0.123,2.646,1.012,1.747,3.173
		c-14.69,35.36-29.309,70.752-43.928,106.142c-0.27,0.651-0.42,1.354-0.627,2.03c0.706-0.16,1.451-0.221,2.106-0.49
		c49.081-20.188,98.155-40.391,147.226-60.601c2.422-0.998,4.924-1.882,7.152-3.214c0.651-0.39,6.601-0.812,0.916-3.174
		c-41.851-17.402-83.747-34.704-125.626-52.038C423.84,443.646,407.988,437.081,392.246,430.565z M656.974,289.299
		c-0.545-1.054-0.791-1.458-0.968-1.885c-19.458-47.204-38.912-94.41-58.365-141.616c-1.784-4.325-2.373-10.57-5.595-12.569
		c-6.216-3.854-5.312,4.236-6.329,6.625c-13.592,31.941-26.129,64.34-40.178,96.072c-3.502,7.905-9.298-1.859-14.311-1.912
		c-2.68-0.028-1.629-2.075-1.016-3.553c14.4-34.725,28.804-69.449,43.175-104.186c0.376-0.906,0.402-1.956,0.589-2.938
		c-0.975,0.175-2.021,0.178-2.917,0.549c-34.261,14.166-68.365,28.719-102.843,42.323c-9.303,3.669-5.683-7.517-9.236-10.96
		c-2.712-2.624,1.081-3.373,2.735-4.062c34.231-14.241,68.497-28.402,102.747-42.595c1.103-0.457,2.131-1.084,3.193-1.632
		c-1.132-0.619-2.213-1.348-3.396-1.838c-51.344-21.246-102.694-42.476-154.049-63.69c-0.716-0.296-1.512-0.406-2.27-0.603
		c0.203,0.694,0.346,1.415,0.623,2.078c20.646,49.763,41.134,99.594,62.121,149.215c3.702,8.755,4.021,21.519,12.797,25.312
		c56.847,24.573,114.259,47.844,171.49,71.527C655.451,289.158,656.014,289.143,656.974,289.299z M127.682,289.597
		c1.081-0.485,1.505-0.69,1.939-0.87c48.651-20.108,97.321-40.167,145.938-60.358c9.461-3.928,24.092-5.958,27.212-12.941
		c25.521-57.133,48.878-115.233,72.883-173.043c0.204-0.489,0.235-1.048,0.349-1.573c-0.423,0.047-0.885,0.001-1.261,0.157
		c-52.158,21.615-104.309,43.245-156.456,64.888c-0.665,0.277-1.258,0.729-1.884,1.098c0.707,0.418,1.373,0.929,2.124,1.24
		c35.105,14.57,70.422,28.667,105.12,44.148c5.424,2.421-2.478,8.813-2.947,13.682c-0.202,2.085-1.782,1.883-3.443,1.19
		c-34.649-14.435-69.312-28.838-103.985-43.213c-0.985-0.408-2.123-0.452-3.19-0.667c0.186,0.981,0.208,2.03,0.583,2.934
		c14.247,34.524,28.878,68.896,42.536,103.651c3.125,7.954-7.083,4.849-10.178,8.21c-1.979,2.149-3.77,0.832-4.876-1.854
		c-14.239-34.531-28.56-69.031-42.877-103.531c-0.444-1.072-1.072-2.066-1.613-3.097c-0.55,0.977-1.211,1.907-1.636,2.935
		c-21.353,51.596-42.688,103.199-64.004,154.809C127.774,287.973,127.814,288.668,127.682,289.597z M463.327,218.469
		c-0.505-0.995-0.697-1.323-0.84-1.67c-23.025-55.781-46.045-111.564-69.092-167.336c-0.295-0.71-0.979-1.259-1.478-1.884
		c-0.455,0.695-1.03,1.34-1.342,2.093c-22.874,55.335-45.696,110.69-68.669,165.983c-1.193,2.872-0.075,3.513,2.039,4.385
		c38.775,15.997,77.695,31.667,116.137,48.429c5.439,2.37-2.194,7.964-2.445,12.39c-0.07,1.25-0.391,3.989-3.597,2.659
		c-35.186-14.617-70.418-29.124-105.648-43.632c-0.685-0.282-1.504-0.237-2.26-0.344c0.143,0.706,0.173,1.459,0.443,2.112
		c21.298,51.521,42.615,103.033,63.95,154.538c0.343,0.827,0.954,1.546,1.438,2.315c0.542-0.823,1.229-1.583,1.599-2.478
		c21.306-51.411,42.588-102.833,63.849-154.262c0.296-0.715,0.288-1.556,0.426-2.336c-0.771,0.159-1.554,0.268-2.307,0.481
		c-18.228,5.146-34.697,22.853-55.752,7.787c-0.716-0.513-1.467-0.975-2.204-1.46c0.689-0.429,1.332-0.965,2.069-1.271
		c15.867-6.578,31.75-13.117,47.614-19.694C452.619,223.053,457.944,220.751,463.327,218.469z"/>
	<path fill-rule="evenodd" clip-rule="evenodd" fill="none" stroke="#44B2E5" stroke-width="2" stroke-miterlimit="10" d="
		M517.358,304.912c5.404-13.015,10.923-26.262,16.396-39.527c0.811-1.963,2.611-5.089-0.985-5.239
		c-4.836-0.205-9.62-9.745-14.013-1.55c-5.338,9.954-7.809,21.501-13.494,31.2c-5.731,9.779-11.718-1.291-17.514-2.324
		c-7.476-1.332-14.397-5.693-21.63-8.57c-0.72-0.287-2.771,0.623-2.796,1.063c-0.305,5.001-8.215,8.984-2.876,14.304
		c2.7,2.691,7.474,3.262,11.252,4.924c4.56,2.006,9.06,4.152,13.584,6.237c-4.883,2.133-9.674,4.518-14.667,6.354
		c-14.318,5.266-29.371,9.551-32.253,27.965c-0.168,1.083-0.464,2.144-0.702,3.215c0.967-0.2,1.995-0.25,2.894-0.622
		c19.769-8.188,39.319-16.967,59.375-24.367c8.819-3.255,7.032,6.905,8.642,10.681c22.107,51.882,43.584,104.031,65.192,156.125
		c0.438,1.056,0.571,2.238,0.846,3.361c-1.266-0.521-2.534-1.044-3.801-1.568c-48.98-20.326-97.956-40.652-146.939-60.97
		c-5.894-2.446-12.921-3.571-17.455-7.551c-6.881-6.037,1.283-11.921,3.371-17.093c22.067-54.649,44.853-109.009,67.25-163.526
		c1.914-4.658,4.303-2.36,6.629-1.398c54.56,22.536,109.095,45.13,163.624,67.74c0.816,0.339,1.498,1.009,2.243,1.525
		c-0.859,0.5-1.676,1.106-2.587,1.484c-34.767,14.413-69.537,28.819-104.323,43.188c-5.021,2.073-1.462,5.538-0.299,6.811
		c2.486,2.729-0.214,11.231,7.111,8.275c35.16-14.171,70.121-28.841,105.161-43.319c0.573-0.238,1.222-0.305,1.837-0.451
		c-0.085,0.512-0.068,1.063-0.263,1.529c-18.908,45.906-37.833,91.805-56.757,137.704c-1.784,4.322-3.495,8.676-5.395,12.946
		c-1.115,2.502-2.539,4.867-3.827,7.293c-1.334-2.68-2.846-5.288-3.988-8.049c-22.751-55.077-45.466-110.171-68.172-165.266
		C517.748,306.761,517.643,306,517.358,304.912z M463.169,392.001c-5.33,12.91-11.541,24.927-14.965,37.689
		c-1.441,5.362,7.906,4.306,11.73,7.236c0.511,0.393,2.777-0.331,3.095-1.044c2.569-5.738,4.442-11.816,7.339-17.367
		c4.619-8.851,4.233-21.057,14.181-26.22c11.736-6.095,24.89-9.496,36.497-15.784c7.647-4.144-1.843-9.217-1.933-14.212
		c-0.055-3.112-2.872-1.322-4.357-0.72c-10.956,4.45-21.933,8.863-32.744,13.643c-2.988,1.319-3.845,0.342-4.842-2.096
		c-4.477-10.944-8.654-22.035-13.724-32.703c-3.554-7.487-7.477,0.866-11.385,0.823c-1.884-0.021-6.065,0.588-4.015,5.19
		c3.323,7.46,6.319,15.064,9.432,22.616c0.278,0.672,0.413,1.4,0.613,2.104c-0.779-0.108-1.625-0.056-2.33-0.344
		c-7.908-3.231-15.558-8.008-23.759-9.284c-5.92-0.92-4.397,7.881-7.352,11.662c-0.376,0.479,0.451,2.794,1.218,3.13
		c7.043,3.09,14.213,5.897,21.316,8.854C452.561,387.412,457.897,389.747,463.169,392.001z M449.062,317.799
		c1.609-1.311,3.423-2.085,3.734-3.257c0.265-0.998-1.196-2.456-1.894-3.711c-0.895,1.71-1.835,3.398-2.636,5.149
		C448.135,316.27,448.623,316.841,449.062,317.799z"/>
	<path fill-rule="evenodd" clip-rule="evenodd" fill="none" stroke="#44B2E5" stroke-width="2" stroke-miterlimit="10" d="
		M248.625,261.316c5.863,14.21,11.694,26.959,16.368,40.117c3.614,10.177-4.367,18.082-7.792,26.563
		c-20.382,50.474-41.431,100.68-62.27,150.971c-0.279,0.674-0.755,1.265-1.139,1.896c-0.399-0.606-0.909-1.168-1.183-1.826
		c-21.63-52.092-43.241-104.193-64.84-156.298c-0.168-0.403-0.151-0.883-0.221-1.327c0.604,0.099,1.255,0.089,1.808,0.316
		c35.124,14.515,70.24,29.043,105.347,43.602c1.728,0.716,3.9,1.773,4.051-1.014c0.266-4.931,9.056-10.969,2.432-13.915
		c-34.452-15.309-69.514-29.24-104.355-43.674c-0.896-0.37-1.688-0.989-2.53-1.493c0.776-0.483,1.503-1.09,2.337-1.435
		c55.322-22.892,110.628-45.82,166.019-68.548c5.916-2.429,4.754,4.084,5.708,6.361c23.987,57.214,47.896,114.466,71.132,171.988
		c3.15,7.794-6.646,6.491-10.286,8.037c-51.636,21.961-103.513,43.354-155.352,64.841c-1.138,0.47-2.499,0.4-3.755,0.582
		c0.336-1.525,0.45-3.147,1.042-4.569c22.372-53.799,44.437-107.729,67.475-161.242c4.905-11.395,12.242,0.146,17.318,1.805
		c16.096,5.262,31.506,12.623,47.194,19.136c0.988,0.411,2.101,0.525,3.156,0.777c-0.249-1.153-0.526-2.302-0.743-3.46
		c-4.596-24.733-28.236-23.653-44.368-32.754c-0.839-0.474-1.608-1.077-2.409-1.62c0.787-0.477,1.525-1.064,2.364-1.411
		c7.459-3.077,14.917-6.162,22.42-9.129c2.276-0.9,3.266-2.448,1.559-4.184c-3.278-3.329-0.489-12.863-7.882-10.796
		c-11.486,3.211-21.956,10.49-33.51,12.891c-9.103,1.891-6.763-9.589-9.985-14.691c-3.998-6.328-5.985-13.916-8.979-20.9
		c-0.3-0.699-1.784-1.585-2.328-1.375C257.783,257.329,253.229,259.353,248.625,261.316z M337.102,343.407
		c-4.61-1.989-9.155-4.063-13.825-5.804c-0.541-0.202-2.195,1.277-2.624,2.282c-4.151,9.755-8.063,19.611-12.245,29.354
		c-1.521,3.545-1.657,8.755-8.569,5.291c-9.872-4.951-20.073-9.62-30.631-12.71c-8.711-2.552-4.946,7.801-8.705,10.938
		c-1.085,0.905-1.52,2.666,0.679,3.553c5.744,2.308,11.751,4.168,17.12,7.165c8.825,4.927,21.334,4.149,26.585,14.176
		c6.154,11.756,9.604,24.933,15.827,36.643c4.256,8.007,9.043-1.927,13.973-1.847c3.403,0.058,1.821-2.762,1.159-4.379
		c-4.627-11.288-9.292-22.562-14.115-33.768c-0.805-1.868-0.584-2.553,1.225-3.296c11.629-4.768,23.243-9.577,34.793-14.524
		c0.899-0.386,2.022-2.119,1.819-2.918c-2.405-9.525-6.065-16.34-17.448-8.713c-4.054,2.717-9.08,3.989-13.686,5.867
		c-0.64,0.261-1.404,0.217-2.109,0.313c0.106-0.77,0.057-1.604,0.341-2.302C329.999,360.563,333.38,352.415,337.102,343.407z
		 M333.168,309.996c-0.905,1.872-2.255,3.429-1.901,4.219c0.555,1.234,2.242,1.982,3.518,2.836c0.132,0.088,1.077-0.633,1.035-0.744
		C335.092,314.413,334.269,312.557,333.168,309.996z"/>
	<path fill-rule="evenodd" clip-rule="evenodd" fill="none" stroke="#44B2E5" stroke-width="2" stroke-miterlimit="10" d="
		M392.246,430.565c15.743,6.516,31.594,13.08,47.451,19.643c41.879,17.334,83.775,34.636,125.626,52.038
		c5.685,2.362-0.265,2.784-0.916,3.174c-2.229,1.332-4.73,2.216-7.152,3.214c-49.07,20.21-98.145,40.412-147.226,60.601
		c-0.655,0.27-1.4,0.33-2.106,0.49c0.207-0.677,0.357-1.379,0.627-2.03c14.619-35.39,29.237-70.781,43.928-106.142
		c0.898-2.161-0.228-3.05-1.747-3.173c-4.752-0.385-10.849-8.432-13.491-2.48c-15.271,34.393-29.207,69.373-43.624,104.144
		c-0.402,0.969-1.134,1.801-1.71,2.697c-0.492-0.878-1.079-1.721-1.462-2.646c-14.411-34.77-28.539-69.662-43.447-104.217
		c-2.595-6.014-7.102,0.915-10.741,1.463c-1.78,0.267-6.603-0.126-4.396,5.151c14.736,35.238,29.286,70.555,43.883,105.853
		c0.182,0.446,0.161,0.975,0.235,1.463c-0.542-0.116-1.112-0.156-1.617-0.364c-51.851-21.457-103.696-42.924-155.536-64.409
		c-0.847-0.352-1.599-0.933-2.396-1.404c0.663-0.451,1.269-1.035,1.993-1.335c57.054-23.625,114.117-47.227,171.184-70.826
		C390.375,431.15,391.183,430.928,392.246,430.565z"/>
	<path fill-rule="evenodd" clip-rule="evenodd" fill="none" stroke="#44B2E5" stroke-width="2" stroke-miterlimit="10" d="
		M656.974,289.299c-0.96-0.156-1.522-0.141-2.001-0.338c-57.231-23.683-114.644-46.954-171.49-71.527
		c-8.775-3.792-9.095-16.556-12.797-25.312C449.698,142.5,429.21,92.67,408.564,42.907c-0.277-0.663-0.42-1.383-0.623-2.078
		c0.758,0.197,1.554,0.307,2.27,0.603c51.354,21.214,102.705,42.444,154.049,63.69c1.184,0.491,2.265,1.22,3.396,1.838
		c-1.063,0.548-2.091,1.176-3.193,1.632c-34.25,14.193-68.516,28.354-102.747,42.595c-1.654,0.688-5.447,1.438-2.735,4.062
		c3.554,3.443-0.066,14.629,9.236,10.96c34.478-13.604,68.582-28.157,102.843-42.323c0.896-0.371,1.942-0.374,2.921-0.549
		c-0.19,0.983-0.217,2.032-0.593,2.938c-14.371,34.736-28.774,69.461-43.175,104.186c-0.613,1.478-1.664,3.525,1.016,3.553
		c5.013,0.053,10.809,9.817,14.311,1.912c14.049-31.732,26.586-64.131,40.178-96.072c1.018-2.39,0.113-10.48,6.329-6.625
		c3.222,1.999,3.811,8.244,5.595,12.569c19.453,47.206,38.907,94.413,58.365,141.616
		C656.183,287.841,656.429,288.245,656.974,289.299z"/>
	<path fill-rule="evenodd" clip-rule="evenodd" fill="none" stroke="#44B2E5" stroke-width="2" stroke-miterlimit="10" d="
		M127.682,289.597c0.132-0.928,0.092-1.624,0.332-2.206c21.316-51.61,42.651-103.213,64.004-154.809
		c0.425-1.028,1.086-1.958,1.636-2.935c0.542,1.031,1.169,2.025,1.613,3.097c14.317,34.5,28.638,69,42.877,103.531
		c1.106,2.686,2.896,4.003,4.876,1.854c3.095-3.361,13.303-0.256,10.178-8.21c-13.658-34.755-28.289-69.127-42.536-103.651
		c-0.374-0.903-0.396-1.953-0.583-2.934c1.067,0.214,2.206,0.258,3.19,0.667c34.673,14.375,69.336,28.778,103.985,43.213
		c1.661,0.692,3.241,0.895,3.443-1.19c0.469-4.87,8.371-11.261,2.947-13.682c-34.698-15.481-70.014-29.579-105.12-44.148
		c-0.75-0.311-1.417-0.822-2.124-1.24c0.626-0.368,1.22-0.82,1.884-1.098c52.147-21.643,104.298-43.272,156.456-64.888
		c0.375-0.156,0.838-0.11,1.261-0.157c-0.114,0.525-0.145,1.084-0.349,1.573c-24.004,57.81-47.362,115.91-72.883,173.043
		c-3.12,6.983-17.751,9.013-27.212,12.941c-48.617,20.191-97.287,40.25-145.938,60.358
		C129.187,288.906,128.763,289.112,127.682,289.597z"/>
	<path fill-rule="evenodd" clip-rule="evenodd" fill="none" stroke="#44B2E5" stroke-width="2" stroke-miterlimit="10" d="
		M463.327,218.469c-5.383,2.282-10.708,4.584-16.07,6.805c-15.864,6.577-31.747,13.116-47.614,19.694
		c-0.737,0.306-1.38,0.843-2.069,1.271c0.737,0.485,1.488,0.947,2.204,1.46c21.055,15.066,37.524-2.641,55.752-7.787
		c0.753-0.213,1.535-0.322,2.307-0.481c-0.138,0.781-0.13,1.622-0.426,2.336c-21.261,51.429-42.543,102.851-63.849,154.262
		c-0.37,0.895-1.057,1.654-1.599,2.478c-0.484-0.77-1.094-1.488-1.438-2.315c-21.335-51.505-42.652-103.018-63.95-154.538
		c-0.27-0.653-0.3-1.406-0.443-2.112c0.756,0.107,1.575,0.062,2.26,0.344c35.229,14.508,70.462,29.015,105.648,43.632
		c3.206,1.331,3.526-1.409,3.597-2.659c0.251-4.426,7.885-10.02,2.445-12.39c-38.441-16.762-77.362-32.432-116.137-48.429
		c-2.114-0.872-3.232-1.513-2.039-4.385c22.973-55.293,45.796-110.648,68.669-165.983c0.312-0.753,0.887-1.398,1.342-2.093
		c0.499,0.625,1.182,1.174,1.478,1.884c23.047,55.771,46.067,111.555,69.092,167.336
		C462.63,217.146,462.822,217.475,463.327,218.469z M391.97,211.354c0.711,1.34,1.216,2.119,1.562,2.965
		c3.066,7.464,4.962,15.743,9.478,22.184c4.385,6.252,9.123-2.106,14.02-2.418c1.903-0.123,2.213-1.242,1.463-2.978
		c-3.076-7.155-7.314-14.121-8.676-21.601c-1.051-5.792-12.029-11.766-2.5-17.413c10.072-5.969,22.174-8.477,32.369-14.283
		c5.75-3.274-1.784-8.208-2.119-12.643c-0.15-1.972-1.422-3.401-4.012-2.241c-4.625,2.076-9.2,4.565-14.073,5.724
		c-11.259,2.676-20.359,13.972-33.447,8.955c-11.739-4.5-23.047-10.184-34.924-14.232c-7.698-2.625-4.701,6.292-7.59,9.207
		c-1.144,1.158-3.694,4.11,0.819,5.791c8.174,3.044,16.528,5.943,24.065,10.216c3.935,2.23,13.309,0.279,11.112,8.091
		c-3.227,11.485-9.741,22.035-13.116,33.496c-2.247,7.623,7.169,4.859,10.444,8.048c1.89,1.84,3.624,0.877,4.606-1.678
		c2.395-6.215,4.95-12.369,7.49-18.528C389.809,215.908,390.823,213.86,391.97,211.354z M381.844,366.238
		c13.607-0.478,30.685-16.346,32.533-29.492c0.366-2.618-1.613-0.956-2.25-0.696c-11.191,4.552-22.36,9.165-33.484,13.887
		c-1.042,0.44-2.629,2.034-2.444,2.539C377.943,357.254,380.018,361.908,381.844,366.238z M365.929,258.9
		c-7.796,3.271-15.901,6.122-23.153,10.416c-0.896,0.533,2.686,8.785,4.35,13.404c0.901,2.508,2.725,0.913,3.961,0.411
		c11.367-4.622,22.696-9.335,34.002-14.105c0.446-0.189,0.547-1.206,0.809-1.836C379.331,264.463,372.766,261.739,365.929,258.9z
		 M429.321,301.071c2.04-4.955,5.557-9.382,4.605-12.405c-0.852-2.71-6.606-3.899-10.243-5.665c-0.211-0.103-1.268,0.812-1.207,0.97
		C424.548,289.306,426.707,294.606,429.321,301.071z M374.401,348.401c4.702-2.266,8.354-4.025,12.006-5.784
		c-5.344-2.35-10.688-4.707-16.055-7.002c-0.15-0.064-0.915,0.68-0.854,0.834C371.058,340.371,372.686,344.265,374.401,348.401z
		 M360.482,282.21c-3.869,2.207-9.554,3.609-10.35,6.403c-0.854,3.001,2.892,7.309,4.627,11.045
		c2.294-5.272,4.604-10.539,6.837-15.838C361.698,283.585,361.082,283.052,360.482,282.21z M356.14,254.563
		c-0.682,1.579-1.273,2.835-1.723,4.139c-0.047,0.141,0.867,0.897,1.094,0.801c1.651-0.697,3.24-1.542,4.85-2.34
		C359.139,256.409,357.916,255.657,356.14,254.563z M427.865,254.539c-1.784,1.155-2.996,1.937-4.202,2.717
		c1.569,0.76,3.121,1.576,4.734,2.228c0.271,0.108,1.228-0.634,1.187-0.752C429.138,257.422,428.557,256.161,427.865,254.539z
		 M404.399,362.497c-0.753-0.438-1.258-0.941-1.501-0.838c-1.76,0.749-3.471,1.624-5.193,2.459c1.229,0.711,2.674,2.199,3.632,1.934
		C402.504,365.727,403.258,363.924,404.399,362.497z"/>
	<radialGradient id="SVGID_2_" cx="474.29" cy="387.1719" r="49.7989" gradientUnits="userSpaceOnUse">
		<stop  offset="0.133" style="stop-color:#026467"/>
		<stop  offset="1" style="stop-color:#02A9B8"/>
	</radialGradient>
	
		<path fill-rule="evenodd" clip-rule="evenodd" fill="url(#SVGID_2_)" stroke="#44B2E5" stroke-width="2" stroke-miterlimit="10" d="
		M463.169,392.001c-5.271-2.254-10.608-4.589-15.983-6.826c-7.104-2.956-14.273-5.764-21.316-8.854
		c-0.767-0.336-1.594-2.65-1.218-3.13c2.954-3.781,1.432-12.582,7.352-11.662c8.201,1.276,15.851,6.053,23.759,9.284
		c0.705,0.288,1.551,0.235,2.33,0.344c-0.2-0.703-0.335-1.432-0.613-2.104c-3.112-7.552-6.108-15.156-9.432-22.616
		c-2.051-4.603,2.131-5.212,4.015-5.19c3.908,0.043,7.831-8.311,11.385-0.823c5.069,10.668,9.247,21.759,13.724,32.703
		c0.997,2.438,1.854,3.415,4.842,2.096c10.812-4.779,21.788-9.192,32.744-13.643c1.485-0.603,4.303-2.393,4.357,0.72
		c0.09,4.995,9.58,10.068,1.933,14.212c-11.607,6.288-24.761,9.689-36.497,15.784c-9.947,5.163-9.562,17.369-14.181,26.22
		c-2.896,5.551-4.77,11.629-7.339,17.367c-0.317,0.713-2.584,1.437-3.095,1.044c-3.824-2.931-13.172-1.874-11.73-7.236
		C451.628,416.928,457.839,404.911,463.169,392.001z"/>
	<path fill-rule="evenodd" clip-rule="evenodd" fill="#43B0E4" stroke="#44B2E5" stroke-width="2" stroke-miterlimit="10" d="
		M449.062,317.799c-0.438-0.958-0.927-1.529-0.795-1.818c0.801-1.751,1.741-3.439,2.636-5.149c0.697,1.255,2.158,2.713,1.894,3.711
		C452.484,315.714,450.671,316.488,449.062,317.799z"/>
	<radialGradient id="SVGID_3_" cx="309.6011" cy="387.501" r="49.9536" gradientUnits="userSpaceOnUse">
		<stop  offset="0.133" style="stop-color:#026467"/>
		<stop  offset="1" style="stop-color:#02A9B8"/>
	</radialGradient>
	
		<path fill-rule="evenodd" clip-rule="evenodd" fill="url(#SVGID_3_)" stroke="#44B2E5" stroke-width="2" stroke-miterlimit="10" d="
		M337.102,343.407c-3.722,9.008-7.104,17.155-10.436,25.322c-0.284,0.697-0.235,1.532-0.341,2.302
		c0.705-0.096,1.469-0.052,2.109-0.313c4.606-1.878,9.632-3.15,13.686-5.867c11.382-7.627,15.042-0.813,17.448,8.713
		c0.204,0.799-0.92,2.532-1.819,2.918c-11.551,4.947-23.164,9.757-34.793,14.524c-1.809,0.743-2.03,1.428-1.225,3.296
		c4.823,11.206,9.488,22.479,14.115,33.768c0.662,1.617,2.245,4.437-1.159,4.379c-4.929-0.08-9.716,9.854-13.973,1.847
		c-6.223-11.71-9.673-24.887-15.827-36.643c-5.25-10.026-17.76-9.249-26.585-14.176c-5.369-2.997-11.376-4.857-17.12-7.165
		c-2.199-0.887-1.764-2.647-0.679-3.553c3.759-3.138-0.006-13.49,8.705-10.938c10.558,3.09,20.759,7.759,30.631,12.71
		c6.912,3.464,7.048-1.746,8.569-5.291c4.183-9.743,8.094-19.6,12.245-29.354c0.429-1.005,2.083-2.484,2.624-2.282
		C327.947,339.344,332.492,341.418,337.102,343.407z"/>
	<path fill-rule="evenodd" clip-rule="evenodd" fill="#43B0E4" stroke="#44B2E5" stroke-width="2" stroke-miterlimit="10" d="
		M333.168,309.996c1.101,2.561,1.924,4.417,2.651,6.311c0.042,0.111-0.902,0.832-1.035,0.744c-1.275-0.854-2.963-1.602-3.518-2.836
		C330.913,313.425,332.263,311.868,333.168,309.996z"/>
	<radialGradient id="SVGID_4_" cx="391.8018" cy="200.8428" r="44.5723" gradientUnits="userSpaceOnUse">
		<stop  offset="0.133" style="stop-color:#026467"/>
		<stop  offset="1" style="stop-color:#02A9B8"/>
	</radialGradient>
	
		<path fill-rule="evenodd" clip-rule="evenodd" fill="url(#SVGID_4_)" stroke="#44B2E5" stroke-width="2" stroke-miterlimit="10" d="
		M391.97,211.354c-1.147,2.507-2.162,4.555-3.028,6.662c-2.54,6.159-5.095,12.313-7.49,18.528c-0.983,2.556-2.717,3.519-4.606,1.678
		c-3.274-3.189-12.69-0.426-10.444-8.048c3.375-11.46,9.889-22.01,13.116-33.496c2.197-7.812-7.178-5.861-11.112-8.091
		c-7.537-4.272-15.891-7.171-24.065-10.216c-4.514-1.681-1.963-4.632-0.819-5.791c2.889-2.915-0.108-11.832,7.59-9.207
		c11.876,4.049,23.185,9.732,34.924,14.232c13.087,5.017,22.188-6.279,33.447-8.955c4.873-1.159,9.448-3.648,14.073-5.724
		c2.59-1.16,3.861,0.27,4.012,2.241c0.335,4.435,7.869,9.369,2.119,12.643c-10.195,5.806-22.297,8.314-32.369,14.283
		c-9.529,5.646,1.449,11.621,2.5,17.413c1.361,7.48,5.6,14.446,8.676,21.601c0.75,1.736,0.44,2.855-1.463,2.978
		c-4.896,0.312-9.635,8.67-14.02,2.418c-4.516-6.441-6.412-14.72-9.478-22.184C393.186,213.473,392.681,212.693,391.97,211.354z"/>
	<radialGradient id="SVGID_5_" cx="395.3027" cy="350.7646" r="17.3922" gradientUnits="userSpaceOnUse">
		<stop  offset="0.133" style="stop-color:#026467"/>
		<stop  offset="1" style="stop-color:#02A9B8"/>
	</radialGradient>
	
		<path fill-rule="evenodd" clip-rule="evenodd" fill="url(#SVGID_5_)" stroke="#44B2E5" stroke-width="2" stroke-miterlimit="10" d="
		M381.844,366.238c-1.826-4.33-3.901-8.984-5.645-13.763c-0.185-0.505,1.403-2.099,2.444-2.539
		c11.124-4.722,22.292-9.335,33.484-13.887c0.637-0.26,2.616-1.922,2.25,0.696C412.528,349.893,395.451,365.761,381.844,366.238z"/>
	<radialGradient id="SVGID_6_" cx="364.2656" cy="271.4971" r="17.7005" gradientUnits="userSpaceOnUse">
		<stop  offset="0.133" style="stop-color:#026467"/>
		<stop  offset="1" style="stop-color:#02A9B8"/>
	</radialGradient>
	
		<path fill-rule="evenodd" clip-rule="evenodd" fill="url(#SVGID_6_)" stroke="#44B2E5" stroke-width="2" stroke-miterlimit="10" d="
		M365.929,258.9c6.837,2.839,13.402,5.563,19.969,8.29c-0.262,0.63-0.362,1.647-0.809,1.836
		c-11.306,4.77-22.635,9.483-34.002,14.105c-1.236,0.501-3.06,2.097-3.961-0.411c-1.665-4.62-5.246-12.872-4.35-13.404
		C350.027,265.021,358.133,262.171,365.929,258.9z"/>
	<radialGradient id="SVGID_7_" cx="428.2803" cy="292.0322" r="7.5968" gradientUnits="userSpaceOnUse">
		<stop  offset="0.133" style="stop-color:#026467"/>
		<stop  offset="1" style="stop-color:#2B3C98"/>
	</radialGradient>
	
		<path fill-rule="evenodd" clip-rule="evenodd" fill="url(#SVGID_7_)" stroke="#44B2E5" stroke-width="2" stroke-miterlimit="10" d="
		M429.321,301.071c-2.614-6.465-4.773-11.766-6.845-17.1c-0.061-0.158,0.996-1.073,1.207-0.97c3.637,1.766,9.392,2.955,10.243,5.665
		C434.878,291.689,431.361,296.116,429.321,301.071z"/>
	<radialGradient id="SVGID_8_" cx="377.9517" cy="342.0059" r="7.4969" gradientUnits="userSpaceOnUse">
		<stop  offset="0.133" style="stop-color:#026467"/>
		<stop  offset="1" style="stop-color:#2B3C98"/>
	</radialGradient>
	
		<path fill-rule="evenodd" clip-rule="evenodd" fill="url(#SVGID_8_)" stroke="#44B2E5" stroke-width="2" stroke-miterlimit="10" d="
		M374.401,348.401c-1.715-4.137-3.343-8.03-4.902-11.952c-0.061-0.154,0.703-0.898,0.854-0.834
		c5.368,2.295,10.711,4.652,16.055,7.002C382.755,344.376,379.103,346.136,374.401,348.401z"/>
	<radialGradient id="SVGID_9_" cx="355.8081" cy="290.9346" r="7.4077" gradientUnits="userSpaceOnUse">
		<stop  offset="0.133" style="stop-color:#026467"/>
		<stop  offset="1" style="stop-color:#2B3C98"/>
	</radialGradient>
	
		<path fill-rule="evenodd" clip-rule="evenodd" fill="url(#SVGID_9_)" stroke="#44B2E5" stroke-width="2" stroke-miterlimit="10" d="
		M360.482,282.21c0.599,0.842,1.216,1.375,1.115,1.611c-2.233,5.299-4.543,10.566-6.837,15.838
		c-1.736-3.737-5.481-8.044-4.627-11.045C350.929,285.819,356.613,284.417,360.482,282.21z"/>
	<path fill-rule="evenodd" clip-rule="evenodd" fill="#43B0E4" stroke="#44B2E5" stroke-width="2" stroke-miterlimit="10" d="
		M356.14,254.563c1.776,1.094,3,1.846,4.221,2.6c-1.609,0.798-3.198,1.643-4.85,2.34c-0.228,0.097-1.142-0.66-1.094-0.801
		C354.866,257.398,355.458,256.142,356.14,254.563z"/>
	<path fill-rule="evenodd" clip-rule="evenodd" fill="#43B0E4" stroke="#44B2E5" stroke-width="2" stroke-miterlimit="10" d="
		M427.865,254.539c0.691,1.622,1.272,2.884,1.719,4.193c0.041,0.118-0.916,0.86-1.187,0.752c-1.613-0.651-3.165-1.468-4.734-2.228
		C424.869,256.475,426.081,255.694,427.865,254.539z"/>
	<path fill-rule="evenodd" clip-rule="evenodd" fill="#43B0E4" stroke="#44B2E5" stroke-width="2" stroke-miterlimit="10" d="
		M404.399,362.497c-1.142,1.427-1.896,3.229-3.063,3.555c-0.958,0.266-2.402-1.223-3.632-1.934c1.723-0.835,3.434-1.71,5.193-2.459
		C403.142,361.556,403.646,362.059,404.399,362.497z"/>
</g>
</svg>
